<svg width="1920" height="1080" viewBox="0 0 1920 1080" xmlns="http://www.w3.org/2000/svg"><path d="M 0,1080 C 0,1080 0,270 0,270 C 76.75384615384615,224.8153846153846 153.5076923076923,179.6307692307692 260,193 C 366.4923076923077,206.3692307692308 502.723076923077,278.2923076923077 623,289 C 743.276923076923,299.7076923076923 847.6000000000001,249.2 955,266 C 1062.3999999999999,282.8 1172.8769230769233,366.9076923076923 1278,355 C 1383.1230769230767,343.0923076923077 1482.8923076923077,235.16923076923075 1589,205 C 1695.1076923076923,174.83076923076925 1807.5538461538463,222.41538461538462 1920,270 C 1920,270 1920,1080 1920,1080 Z" fill="#0062ff" opacity="0.15"/><path d="M 0,1080 C 0,1080 0,540 0,540 C 137.76666666666668,498.974358974359 275.53333333333336,457.94871794871796 371,480 C 466.46666666666664,502.05128205128204 519.6333333333333,587.1794871794871 598,603 C 676.3666666666667,618.8205128205129 779.9333333333334,565.3333333333333 913,545 C 1046.0666666666666,524.6666666666667 1208.6333333333334,537.4871794871794 1314,551 C 1419.3666666666666,564.5128205128206 1467.5333333333333,578.7179487179487 1559,577 C 1650.4666666666667,575.2820512820513 1785.2333333333333,557.6410256410256 1920,540 C 1920,540 1920,1080 1920,1080 Z" fill="#0062ff" opacity="0.3"/><path d="M 0,1080 C 0,1080 0,810 0,810 C 78.26923076923075,766.623076923077 156.5384615384615,723.2461538461538 270,711 C 383.4615384615385,698.7538461538462 532.1153846153846,717.6384615384617 643,745 C 753.8846153846154,772.3615384615383 827,808.2 928,841 C 1029,873.8 1157.8846153846155,903.5615384615385 1267,873 C 1376.1153846153845,842.4384615384615 1465.4615384615386,751.553846153846 1571,731 C 1676.5384615384614,710.446153846154 1798.2692307692307,760.223076923077 1920,810 C 1920,810 1920,1080 1920,1080 Z" fill="#0062ff" opacity="0.44999999999999996"/></svg>