<svg width="1920" height="1080" viewBox="0 0 1920 1080" xmlns="http://www.w3.org/2000/svg"><path d="M 0,1080 C 0,1080 0,360 0,360 C 68.0025641025641,298.7230769230769 136.0051282051282,237.44615384615383 263,263 C 389.9948717948718,288.55384615384617 575.9820512820513,400.93846153846164 684,458 C 792.0179487179487,515.0615384615384 822.0666666666666,516.8 928,473 C 1033.9333333333334,429.2 1215.751282051282,339.8615384615385 1332,333 C 1448.248717948718,326.1384615384615 1498.9282051282053,401.75384615384615 1586,420 C 1673.0717948717947,438.24615384615385 1796.5358974358974,399.12307692307695 1920,360 C 1920,360 1920,1080 1920,1080 Z" fill="#00aaff" opacity="0.19999999999999998"/><path d="M 0,1080 C 0,1080 0,720 0,720 C 99.57692307692307,766.574358974359 199.15384615384613,813.148717948718 311,788 C 422.84615384615387,762.851282051282 546.9615384615385,665.9794871794871 660,666 C 773.0384615384615,666.0205128205129 875,762.9333333333332 987,774 C 1099,785.0666666666668 1221.0384615384617,710.2871794871796 1335,700 C 1448.9615384615383,689.7128205128204 1554.8461538461536,743.9179487179487 1651,758 C 1747.1538461538464,772.0820512820513 1833.5769230769233,746.0410256410257 1920,720 C 1920,720 1920,1080 1920,1080 Z" fill="#00aaff" opacity="0.39999999999999997"/></svg>